<svg width="100" height="100" viewBox="0 0 100 100" fill="none" xmlns="http://www.w3.org/2000/svg">
<circle cx="50" cy="50" r="50" fill="#1EBFFA"/>
<path d="M80.5385 30.9192C78.25 31.9231 75.8115 32.5885 73.2692 32.9115C75.8846 31.35 77.8808 28.8962 78.8192 25.9385C76.3808 27.3923 73.6885 28.4192 70.8192 28.9923C68.5038 26.5269 65.2038 25 61.6038 25C54.6192 25 48.9962 30.6692 48.9962 37.6192C48.9962 38.6192 49.0808 39.5808 49.2885 40.4962C38.8 39.9846 29.5192 34.9577 23.2846 27.3C22.1962 29.1885 21.5577 31.35 21.5577 33.6769C21.5577 38.0462 23.8077 41.9192 27.1615 44.1615C25.1346 44.1231 23.1462 43.5346 21.4615 42.6077C21.4615 42.6462 21.4615 42.6962 21.4615 42.7462C21.4615 48.8769 25.8346 53.9692 31.5692 55.1423C30.5423 55.4231 29.4231 55.5577 28.2615 55.5577C27.4538 55.5577 26.6385 55.5115 25.8731 55.3423C27.5077 60.3385 32.1462 64.0115 37.6615 64.1308C33.3692 67.4885 27.9192 69.5115 22.0192 69.5115C20.9846 69.5115 19.9923 69.4654 19 69.3385C24.5885 72.9423 31.2115 75 38.3538 75C61.5692 75 74.2615 55.7692 74.2615 39.1C74.2615 38.5423 74.2423 38.0038 74.2154 37.4692C76.7192 35.6923 78.8231 33.4731 80.5385 30.9192Z" fill="white" fill-opacity="0.8"/>
</svg>
