<svg width="100" height="100" viewBox="0 0 100 100" fill="none" xmlns="http://www.w3.org/2000/svg">
<circle cx="50" cy="50" r="50" fill="#1EBFFA"/>
<path d="M61.4654 25H38.5345C31.0715 25 25 31.0715 25 38.5345V61.4658C25 68.9284 31.0715 74.9999 38.5345 74.9999H61.4658C68.9284 74.9999 74.9999 68.9284 74.9999 61.4658V38.5345C74.9999 31.0715 68.9284 25 61.4654 25V25ZM72.0687 61.4658C72.0687 67.3122 67.3122 72.0687 61.4654 72.0687H38.5345C32.6877 72.0687 27.9312 67.3122 27.9312 61.4658V38.5345C27.9312 32.6877 32.6877 27.9312 38.5345 27.9312H61.4658C67.3122 27.9312 72.0687 32.6877 72.0687 38.5345V61.4658Z" fill="white" fill-opacity="0.8"/>
<path d="M50 36.3285C42.4614 36.3285 36.3285 42.4614 36.3285 50C36.3285 57.5385 42.4614 63.6714 50 63.6714C57.5385 63.6714 63.6714 57.5385 63.6714 50C63.6714 42.4614 57.5385 36.3285 50 36.3285ZM50 60.7402C44.078 60.7402 39.2597 55.9223 39.2597 50C39.2597 44.078 44.078 39.2597 50 39.2597C55.9223 39.2597 60.7402 44.078 60.7402 50C60.7402 55.9223 55.9223 60.7402 50 60.7402Z" fill="white" fill-opacity="0.8"/>
<path d="M63.9983 31.4731C61.7705 31.4731 59.9586 33.2855 59.9586 35.5129C59.9586 37.7407 61.7705 39.553 63.9983 39.553C66.2261 39.553 68.0384 37.7407 68.0384 35.5129C68.0384 33.2851 66.2261 31.4731 63.9983 31.4731ZM63.9983 36.6214C63.3872 36.6214 62.8898 36.124 62.8898 35.5129C62.8898 34.9014 63.3872 34.4044 63.9983 34.4044C64.6098 34.4044 65.1072 34.9014 65.1072 35.5129C65.1072 36.124 64.6098 36.6214 63.9983 36.6214Z" fill="white" fill-opacity="0.8"/>
</svg>
